<?xml version="1.0" encoding="UTF-8" standalone="no"?>
<!-- Created with Inkscape (http://www.inkscape.org/) -->

<svg
   xmlns:dc="http://purl.org/dc/elements/1.1/"
   xmlns:cc="http://creativecommons.org/ns#"
   xmlns:rdf="http://www.w3.org/1999/02/22-rdf-syntax-ns#"
   xmlns:svg="http://www.w3.org/2000/svg"
   xmlns="http://www.w3.org/2000/svg"
   xmlns:sodipodi="http://sodipodi.sourceforge.net/DTD/sodipodi-0.dtd"
   xmlns:inkscape="http://www.inkscape.org/namespaces/inkscape"
   width="1200"
   height="420"
   viewBox="0 0 317.49999 111.125"
   version="1.1"
   id="svg8"
   inkscape:version="0.92.5 (2060ec1f9f, 2020-04-08)"
   sodipodi:docname="CF Logo2.svg">
  <defs
     id="defs2">
    <clipPath
       id="clipPath28"
       clipPathUnits="userSpaceOnUse">
      <path
         inkscape:connector-curvature="0"
         id="path26"
         d="M 0,473.386 H 841.89 V 0 H 0 Z" />
    </clipPath>
    <clipPath
       id="clipPath126"
       clipPathUnits="userSpaceOnUse">
      <path
         inkscape:connector-curvature="0"
         id="path124"
         d="M 323.15,190.225 H 680.296 V 314.268 H 323.15 Z" />
    </clipPath>
    <clipPath
       id="clipPath162"
       clipPathUnits="userSpaceOnUse">
      <path
         inkscape:connector-curvature="0"
         id="path160"
         d="M 313.795,184.98 H 689.669 V 319.749 H 313.795 Z" />
    </clipPath>
    <clipPath
       id="clipPath194"
       clipPathUnits="userSpaceOnUse">
      <path
         inkscape:connector-curvature="0"
         id="path192"
         d="M 323.15,190.225 H 680.296 V 314.268 H 323.15 Z" />
    </clipPath>
    <clipPath
       id="clipPath216"
       clipPathUnits="userSpaceOnUse">
      <path
         inkscape:connector-curvature="0"
         id="path214"
         d="M 0,473.386 H 841.89 V 0 H 0 Z" />
    </clipPath>
    <clipPath
       id="clipPath354"
       clipPathUnits="userSpaceOnUse">
      <path
         inkscape:connector-curvature="0"
         id="path352"
         d="M 0,473.386 H 841.89 V 0 H 0 Z" />
    </clipPath>
    <clipPath
       id="clipPath364"
       clipPathUnits="userSpaceOnUse">
      <path
         inkscape:connector-curvature="0"
         id="path362"
         d="M 0,0 H 841.889 V 473.386 H 0 Z" />
    </clipPath>
    <clipPath
       id="clipPath372"
       clipPathUnits="userSpaceOnUse">
      <path
         inkscape:connector-curvature="0"
         id="path370"
         d="M 336.982,553.787 H -5.713 v 388.841 h 342.695 z" />
    </clipPath>
    <linearGradient
       id="linearGradient436"
       spreadMethod="pad"
       gradientTransform="matrix(852.96493,0,0,-850.44058,191.09622,240.6781)"
       gradientUnits="userSpaceOnUse"
       y2="0"
       x2="1"
       y1="0"
       x1="0">
      <stop
         id="stop428"
         offset="0"
         style="stop-opacity:1;stop-color:#000000" />
      <stop
         id="stop430"
         offset="0.00657685"
         style="stop-opacity:1;stop-color:#000000" />
      <stop
         id="stop432"
         offset="0.73744109"
         style="stop-opacity:1;stop-color:#000000" />
      <stop
         id="stop434"
         offset="1"
         style="stop-opacity:1;stop-color:#b600ff" />
    </linearGradient>
    <clipPath
       id="clipPath446"
       clipPathUnits="userSpaceOnUse">
      <path
         inkscape:connector-curvature="0"
         id="path444"
         d="M 0,473.384 V 0 H 2.702 L 113.124,55.442 250.96,473.384 Z" />
    </clipPath>
    <clipPath
       id="clipPath482"
       clipPathUnits="userSpaceOnUse">
      <path
         inkscape:connector-curvature="0"
         id="path480"
         d="M 0,473.386 H 841.89 V 0 H 0 Z" />
    </clipPath>
  </defs>
  <sodipodi:namedview
     id="base"
     pagecolor="#ffffff"
     bordercolor="#666666"
     borderopacity="1.0"
     inkscape:pageopacity="0.0"
     inkscape:pageshadow="2"
     inkscape:zoom="0.5"
     inkscape:cx="601.89677"
     inkscape:cy="268.84297"
     inkscape:document-units="mm"
     inkscape:current-layer="layer1"
     showgrid="false"
     inkscape:window-width="1366"
     inkscape:window-height="716"
     inkscape:window-x="-8"
     inkscape:window-y="22"
     inkscape:window-maximized="1"
     units="px" />
  <metadata
     id="metadata5">
    <rdf:RDF>
      <cc:Work
         rdf:about="">
        <dc:format>image/svg+xml</dc:format>
        <dc:type
           rdf:resource="http://purl.org/dc/dcmitype/StillImage" />
        <dc:title></dc:title>
      </cc:Work>
    </rdf:RDF>
  </metadata>
  <g
     inkscape:label="Layer 1"
     inkscape:groupmode="layer"
     id="layer1"
     transform="translate(0,-185.87498)">
    <g
       id="g358"
       transform="matrix(0.35277777,0,0,-0.35277777,-261.11664,296.70645)">
      <g
         id="g360"
         clip-path="url(#clipPath364)">
        <g
           id="g366">
          <g
             id="g368"
             clip-path="url(#clipPath372)">
            <g
               id="g374"
               transform="matrix(1.0135729,0,0,-1.0105733,420.94449,237.06583)">
              <g
                 id="g376"
                 transform="translate(-251.8708,-434.9949)">
                <path
                   d="M 0,0 C 18.288,27.677 34.524,56.463 52.977,84.084 L 57.988,72.302 C 40.634,45.35 24.239,17.643 6.968,-9.335 c 1.611,-4.111 4.045,-5.707 5.794,-9.395 17.319,26.229 33.248,52.912 50.236,79.25 47.658,76.417 96.214,152.539 143.62,229.042 -80.227,0.698 -160.886,0.058 -241.205,0.473 -157.944,-0.959 -317.896,0.054 -477.834,0.653 l -5.663,10.726 c 160.194,0.119 320.47,0.39 478.704,-0.107 88.386,-0.496 177.407,0.935 265.359,-0.888 C 172.795,216.846 120.643,132.931 67.79,49.248 51.758,23.919 36.219,-1.565 19.772,-26.757 c -0.819,-2.629 2.866,-4.07 2.134,-6.433 -65.763,-104.512 -131.738,-209.128 -197.679,-313.771 l -22.213,42.074 C -132.953,-201.702 -67.923,-98.542 -3.134,4.556 -2.079,3.069 -0.973,1.738 0,0"
                   style="fill:#ff0363;fill-opacity:1;fill-rule:nonzero;stroke:none"
                   id="path378"
                   inkscape:connector-curvature="0" />
              </g>
            </g>
            <g
               id="g380"
               transform="matrix(1.0135729,0,0,-1.0105733,420.94449,237.06583)">
              <g
                 id="g382"
                 transform="translate(-309.112,-91.6805)">
                <path
                   d="m 0,0 4.355,-10.246 c -160.717,0.06 -321.389,0.347 -482.129,0.415 l -5.227,9.901 C -321.846,0.149 -160.152,0.355 0,0"
                   style="fill:#ff0363;fill-opacity:1;fill-rule:nonzero;stroke:none"
                   id="path384"
                   inkscape:connector-curvature="0" />
              </g>
            </g>
            <g
               id="g386"
               transform="matrix(1.0135729,0,0,-1.0105733,420.94449,237.06583)">
              <g
                 id="g388"
                 transform="translate(-166.2194,-427.7557)">
                <path
                   d="m 0,0 -4.357,10.247 c 66.117,105.064 132.375,210.086 198.075,315.288 -110.629,0.467 -221.471,0.302 -332.254,0.294 l -4.357,10.246 c 117.768,-0.28 235.849,0.45 353.365,-0.59 C 141.047,223.41 70.083,111.855 0,0"
                   style="fill:#ff0363;fill-opacity:1;fill-rule:nonzero;stroke:none"
                   id="path390"
                   inkscape:connector-curvature="0" />
              </g>
            </g>
            <g
               id="g392"
               transform="matrix(1.0135729,0,0,-1.0105733,420.94449,237.06583)">
              <g
                 id="g394"
                 transform="translate(-310.7043,-347.3757)">
                <path
                   d="M 0,0 C 14.087,23.759 30.367,46.797 43.623,70.829 -98.564,70.755 -241.201,70.612 -383.664,70.625 l -8.037,15.224 C -238.182,85.705 -84.662,85.562 68.992,85.897 50.109,52.388 27.187,20.205 8.012,-13.209 c 2.131,-4.479 4.94,-6.895 7.143,-11.159 22.247,32.701 41.279,66.894 63.111,99.731 5.386,8.083 10.628,16.217 15.353,24.519 -8.456,0.473 -17.106,0.355 -25.808,0.071 -155.765,-0.382 -311.432,-0.043 -467.092,0.253 l -7.723,14.627 c 155.989,-0.45 312.488,-1.263 468.715,-0.534 18.69,-0.232 37.897,1.128 56.06,-0.715 C 106.248,96.191 95.805,78.44 84.366,61.017 63.481,29.342 44.419,-3.372 23.952,-35.185 c -0.827,-2.965 3.644,-4.776 3.049,-7.172 -63.599,-100.978 -127.285,-202.045 -190.97,-303.145 l -28.128,53.278 C -129.769,-193.21 -67.41,-94.218 -5.007,4.725 -3.078,3.947 -2.498,-0.952 0,0"
                   style="fill:#ff0363;fill-opacity:1;fill-rule:nonzero;stroke:none"
                   id="path396"
                   inkscape:connector-curvature="0" />
              </g>
            </g>
            <g
               id="g398"
               transform="matrix(1.0135729,0,0,-1.0105733,420.94449,237.06583)">
              <g
                 id="g400"
                 transform="translate(-271.2106,-180.8221)">
                <path
                   d="m 0,0 c 55.541,0.453 110.958,0.538 166.128,-0.147 -32.458,-52.732 -65.587,-105.24 -99.038,-157.645 -18.577,-28.168 -36.148,-59.46 -54.455,-86.247 -2.264,2.902 -4.521,5.824 -6.491,9.622 18.319,29.725 37.237,59.25 55.718,88.92 27.915,44.076 55.259,88.335 83.425,132.329 -46.151,1.931 -93.445,0.363 -140.059,0.873 -157.584,0.048 -315.131,0.231 -472.709,0.319 l -6.383,12.091 C -315.292,0.104 -156.541,0.376 0,0"
                   style="fill:#ff0363;fill-opacity:1;fill-rule:nonzero;stroke:none"
                   id="path402"
                   inkscape:connector-curvature="0" />
              </g>
            </g>
            <g
               id="g404"
               transform="matrix(1.0135729,0,0,-1.0105733,420.94449,237.06583)">
              <g
                 id="g406"
                 transform="translate(-281.4489,-156.7425)">
                <path
                   d="m 0,0 5.009,-11.784 c -158.472,-0.453 -316.831,-0.098 -475.177,0.211 l -6.311,11.955 C -317.664,0.128 -158.77,0.037 0,0"
                   style="fill:#ff0363;fill-opacity:1;fill-rule:nonzero;stroke:none"
                   id="path408"
                   inkscape:connector-curvature="0" />
              </g>
            </g>
            <g
               id="g410"
               transform="matrix(1.0135729,0,0,-1.0105733,420.94449,237.06583)">
              <g
                 id="g412"
                 transform="translate(-254.6574,-219.7581)">
                <path
                   d="m 0,0 c -156.69,-0.115 -313.361,0.166 -470.024,0.425 l -7.202,13.64 c 157.11,-0.093 314.217,-0.194 471.346,-0.232 z"
                   style="fill:#ff0363;fill-opacity:1;fill-rule:nonzero;stroke:none"
                   id="path414"
                   inkscape:connector-curvature="0" />
              </g>
            </g>
          </g>
        </g>
      </g>
    </g>
    <g
       id="g767"
       style="fill:#ffffff"
       transform="matrix(2.4848427,0,0,2.4848427,-223.00363,24.553734)">
      <g
         transform="matrix(0.35277777,0,0,-0.35277777,196.79274,88.811177)"
         id="g104"
         style="fill:#ffffff">
        <path
           inkscape:connector-curvature="0"
           id="path106"
           style="fill:#ffffff;fill-opacity:1;fill-rule:nonzero;stroke:none"
           d="M 0,0 6.346,-19.533 -10.27,-7.461 -26.915,-19.554 -20.538,0 -37.097,12.072 h 20.481 l 6.346,19.534 6.348,-19.534 H 16.616 Z M 40.749,12.072 31.747,39.776 H -7.615 l 8.523,26.229 h -29.129 l -15.867,-48.834 -8.739,6.37 -8.557,-26.244 28.781,-20.984 -23.715,-17.231 23.565,-17.12 41.754,30.336 2.764,-8.507 23.565,17.123 -10.123,31.158 z" />
      </g>
      <g
         transform="matrix(0.35277777,0,0,-0.35277777,152.73245,87.250806)"
         id="g108"
         style="fill:#ffffff">
        <path
           inkscape:connector-curvature="0"
           id="path110"
           style="fill:#ffffff;fill-opacity:1;fill-rule:nonzero;stroke:none"
           d="M 0,0 12.812,39.431 3.53,39.687 -9.365,0 Z" />
      </g>
      <g
         transform="matrix(0.35277777,0,0,-0.35277777,128.122,84.211731)"
         id="g112"
         style="fill:#ffffff">
        <path
           inkscape:connector-curvature="0"
           id="path114"
           style="fill:#ffffff;fill-opacity:1;fill-rule:nonzero;stroke:none"
           d="m 0,0 -11.486,0.066 2.772,8.531 9.6,-0.097 2.605,8.045 -9.57,0.159 2.617,8.056 11.427,-0.25 2.693,8.29 -21.243,0.584 -13.647,-41.999 h 21.429 z" />
      </g>
      <g
         transform="matrix(0.35277777,0,0,-0.35277777,120.12266,94.880401)"
         id="g116"
         style="fill:#ffffff">
        <path
           inkscape:connector-curvature="0"
           id="path118"
           style="fill:#ffffff;fill-opacity:1;fill-rule:nonzero;stroke:none"
           d="m 0,0 2.254,6.945 9.184,0.053 2.408,7.414 H -3.9 l -11.812,-36.352 8.661,0.238 4.672,14.38 7.831,0.131 2.366,7.279 z" />
      </g>
      <g
         transform="matrix(0.35277777,0,0,-0.35277777,-23.161839,176.39288)"
         id="g120"
         style="fill:#ffffff">
        <g
           clip-path="url(#clipPath126)"
           id="g122"
           style="fill:#ffffff">
          <g
             transform="translate(342.3259,268.2795)"
             id="g128"
             style="fill:#ffffff">
            <path
               inkscape:connector-curvature="0"
               id="path130"
               style="fill:#ffffff;fill-opacity:1;fill-rule:nonzero;stroke:none"
               d="m 0,0 -1.244,-3.836 c -0.754,-2.305 -2.234,-3.064 -4.065,-3.05 -2.095,0.014 -2.735,1.368 -2.082,3.35 l 6.653,20.503 c 0.645,1.968 1.932,3.031 3.881,2.987 1.937,-0.043 2.899,-1.443 2.07,-3.911 l -1.058,-3.226 9.753,-0.171 1.534,4.722 C 17.874,24.851 13.25,28.777 6.395,28.965 -1.359,29.179 -8.946,26.153 -11.778,17.438 L -18.442,-3.08 c -2.767,-8.437 2.604,-12.984 10.821,-12.996 7.479,-0.011 13.025,2.549 15.943,11.589 l 1.446,4.392 z" />
          </g>
        </g>
      </g>
      <g
         transform="matrix(0.35277777,0,0,-0.35277777,110.13041,81.009003)"
         id="g132"
         style="fill:#ffffff">
        <path
           inkscape:connector-curvature="0"
           id="path134"
           style="fill:#ffffff;fill-opacity:1;fill-rule:nonzero;stroke:none"
           d="m 0,0 2.704,8.321 -9.405,0.165 2.707,8.331 11.581,-0.269 2.791,8.592 -22.392,0.612 -14.117,-43.445 h 22.592 l 2.896,8.906 -11.648,0.069 2.866,8.821 z" />
      </g>
      <g
         transform="matrix(0.35277777,0,0,-0.35277777,118.94827,84.159979)"
         id="g136"
         style="fill:#ffffff">
        <path
           inkscape:connector-curvature="0"
           id="path138"
           style="fill:#ffffff;fill-opacity:1;fill-rule:nonzero;stroke:none"
           d="M 0,0 -10.084,0.061 0.823,33.628 -9.61,33.915 -23.476,-8.761 h 20.627 z" />
      </g>
      <g
         transform="matrix(0.35277777,0,0,-0.35277777,126.53863,89.796203)"
         id="g140"
         style="fill:#ffffff">
        <path
           inkscape:connector-curvature="0"
           id="path142"
           style="fill:#ffffff;fill-opacity:1;fill-rule:nonzero;stroke:none"
           d="m 0,0 -11.612,-35.739 8.255,0.228 L 8.181,0 Z" />
      </g>
      <g
         transform="matrix(0.35277777,0,0,-0.35277777,138.20284,89.796203)"
         id="g144"
         style="fill:#ffffff">
        <path
           inkscape:connector-curvature="0"
           id="path146"
           style="fill:#ffffff;fill-opacity:1;fill-rule:nonzero;stroke:none"
           d="m 0,0 h -20.794 l -2.378,-7.319 6.437,0.038 -9.078,-27.938 8.1,0.223 9.02,27.761 6.355,0.036 z" />
      </g>
      <g
         transform="matrix(0.35277777,0,0,-0.35277777,144.85566,89.796203)"
         id="g148"
         style="fill:#ffffff">
        <path
           inkscape:connector-curvature="0"
           id="path150"
           style="fill:#ffffff;fill-opacity:1;fill-rule:nonzero;stroke:none"
           d="M 0,0 -5.525,-17.005 -8.169,0 h -6.802 l -11.278,-34.711 6.951,0.191 5.971,18.377 2.641,-18.14 6.483,0.179 L 6.878,0 Z" />
      </g>
      <g
         transform="matrix(0.35277777,0,0,-0.35277777,150.78388,92.258416)"
         id="g152"
         style="fill:#ffffff">
        <path
           inkscape:connector-curvature="0"
           id="path154"
           style="fill:#ffffff;fill-opacity:1;fill-rule:nonzero;stroke:none"
           d="M 0,0 9.026,0.052 11.277,6.98 H -5.199 l -11.038,-33.973 16.982,0.468 2.252,6.93 -9.43,-0.21 2.249,6.927 7.741,0.128 2.232,6.864 -7.731,-0.085 z" />
      </g>
      <g
         transform="matrix(0.35277777,0,0,-0.35277777,-23.161839,176.39288)"
         id="g156"
         style="fill:#ffffff">
        <g
           clip-path="url(#clipPath162)"
           id="g158"
           style="fill:#ffffff">
          <g
             transform="translate(515.2299,239.7058)"
             id="g164"
             style="fill:#ffffff">
            <path
               inkscape:connector-curvature="0"
               id="path166"
               style="fill:#ffffff;fill-opacity:1;fill-rule:nonzero;stroke:none"
               d="m 0,0 c 1.871,0 1.391,-2.196 0.903,-4.218 l 6.644,0.05 c 2.561,7.79 -1.589,10.475 -6.656,10.475 -7.398,0 -11.269,-4.809 -11.269,-10.392 0,-5.73 5.95,-9.554 5.95,-13.46 0,-1.939 -0.963,-3.779 -2.592,-3.797 -2.073,-0.023 -1.652,3.305 -1.27,4.658 l -7.044,-0.136 c -2.245,-8.001 0.962,-11.231 7.444,-11.057 6.925,0.184 11.531,4.934 11.531,11.554 0,6.279 -6.297,9.919 -6.297,13.205 C -2.656,-1.01 -1.25,0 0,0" />
          </g>
          <g
             transform="translate(537.8501,246.0129)"
             id="g168"
             style="fill:#ffffff">
            <path
               inkscape:connector-curvature="0"
               id="path170"
               style="fill:#ffffff;fill-opacity:1;fill-rule:nonzero;stroke:none"
               d="m 0,0 c -7.758,0 -11.221,-4.858 -11.221,-10.645 0,-5.706 5.918,-9.038 5.918,-12.787 0,-1.901 -0.86,-3.707 -2.458,-3.725 -2.034,-0.021 -1.621,3.249 -1.246,4.576 l -6.904,-0.13 c -2.202,-7.849 0.938,-11.027 7.296,-10.857 6.794,0.182 11.313,4.841 11.313,11.335 0,6.159 -6.178,9.73 -6.178,12.954 0,2.068 1.378,3.092 2.605,3.092 1.835,0 1.365,-2.172 0.886,-4.156 l 6.518,0.054 C 9.041,-2.646 4.97,0 0,0" />
          </g>
          <g
             transform="translate(555.2286,290.9101)"
             id="g172"
             style="fill:#ffffff">
            <path
               inkscape:connector-curvature="0"
               id="path174"
               style="fill:#ffffff;fill-opacity:1;fill-rule:nonzero;stroke:none"
               d="m 0,0 -7.129,-12.707 0.432,12.89 -8.575,0.238 0.332,-24.295 -4.663,-14.35 h 8.505 l 4.571,14.068 15.638,23.903 z" />
          </g>
          <g
             transform="translate(446.0967,269.6906)"
             id="g176"
             style="fill:#ffffff">
            <path
               inkscape:connector-curvature="0"
               id="path178"
               style="fill:#ffffff;fill-opacity:1;fill-rule:nonzero;stroke:none"
               d="m 0,0 1.389,-0.031 c 2.382,0 3.24,-1.507 2.249,-4.491 C 2.76,-7.163 1.306,-9.028 -1.641,-9.028 L -2.93,-9.009 Z M 5.337,16.43 7.36,16.371 C 9.178,16.331 9.769,14.565 8.838,11.763 7.814,8.682 6.163,7.038 4.18,7.071 L 2.309,7.113 Z m -8.811,-33.434 c 9.241,0 13.516,3.241 15.859,10.454 1.221,3.755 0.596,7.085 -1.246,9.187 3.105,1.202 5.64,4.483 7.067,8.871 2.458,7.56 -1.006,12.246 -7.445,12.424 l -12.788,0.352 -13.415,-41.288 z" />
          </g>
          <g
             transform="translate(480.0472,285.1987)"
             id="g180"
             style="fill:#ffffff">
            <path
               inkscape:connector-curvature="0"
               id="path182"
               style="fill:#ffffff;fill-opacity:1;fill-rule:nonzero;stroke:none"
               d="m 0,0 1.637,-0.048 c 2.607,-0.06 2.868,-1.789 1.761,-5.175 -1.322,-4.04 -2.892,-5.695 -5.682,-5.568 l -1.207,0.053 z m -10.565,-32.513 4.941,15.209 1.276,-0.029 0.107,-15.18 h 9.615 l -1.342,16.312 c 4.227,1.623 6.982,5.083 8.945,11.109 2.347,7.208 0.209,12.514 -9.188,12.771 L -6.92,7.977 -20.075,-32.513 Z" />
          </g>
          <g
             transform="translate(509.4078,252.6862)"
             id="g184"
             style="fill:#ffffff">
            <path
               inkscape:connector-curvature="0"
               id="path186"
               style="fill:#ffffff;fill-opacity:1;fill-rule:nonzero;stroke:none"
               d="M 0,0 H 9.092 L 19.2,31.108 25.53,30.964 28.048,38.713 5.963,39.324 3.406,31.451 10.172,31.306 Z" />
          </g>
        </g>
      </g>
      <g
         transform="matrix(0.35277777,0,0,-0.35277777,-23.161839,176.39288)"
         id="g188"
         style="fill:#ffffff">
        <g
           clip-path="url(#clipPath194)"
           id="g190"
           style="fill:#ffffff">
          <g
             transform="translate(666.3835,286.3969)"
             id="g196"
             style="fill:#ffffff">
            <path
               inkscape:connector-curvature="0"
               id="path198"
               style="fill:#ffffff;fill-opacity:1;fill-rule:nonzero;stroke:none"
               d="M 0,0 H -2.043 V 1.629 H 3.893 V 0 H 1.85 V -7.58 H 0 Z" />
          </g>
          <g
             transform="translate(678.506,285.1404)"
             id="g200"
             style="fill:#ffffff">
            <path
               inkscape:connector-curvature="0"
               id="path202"
               style="fill:#ffffff;fill-opacity:1;fill-rule:nonzero;stroke:none"
               d="M 0,0 -2.07,-6.324 H -2.83 L -4.887,0 V -6.324 H -6.71 v 9.21 h 2.471 l 1.782,-5.537 1.809,5.537 h 2.457 v -9.21 H 0 Z" />
          </g>
        </g>
      </g>
    </g>
  </g>
</svg>
