<?xml version="1.0" encoding="UTF-8" standalone="no"?>
<!-- Created with Inkscape (http://www.inkscape.org/) -->

<svg
   xmlns:dc="http://purl.org/dc/elements/1.1/"
   xmlns:cc="http://creativecommons.org/ns#"
   xmlns:rdf="http://www.w3.org/1999/02/22-rdf-syntax-ns#"
   xmlns:svg="http://www.w3.org/2000/svg"
   xmlns="http://www.w3.org/2000/svg"
   xmlns:sodipodi="http://sodipodi.sourceforge.net/DTD/sodipodi-0.dtd"
   xmlns:inkscape="http://www.inkscape.org/namespaces/inkscape"
   width="11.69in"
   height="6.5700002in"
   viewBox="0 0 296.92599 166.87801"
   version="1.1"
   id="svg8"
   inkscape:version="0.92.5 (2060ec1f9f, 2020-04-08)"
   sodipodi:docname="super_graphics.svg">
  <defs
     id="defs2">
    <clipPath
       id="clipPath28"
       clipPathUnits="userSpaceOnUse">
      <path
         inkscape:connector-curvature="0"
         id="path26"
         d="M 0,473.386 H 841.89 V 0 H 0 Z" />
    </clipPath>
    <clipPath
       id="clipPath102"
       clipPathUnits="userSpaceOnUse">
      <path
         inkscape:connector-curvature="0"
         id="path100"
         d="M 0,473.386 H 841.89 V 0 H 0 Z" />
    </clipPath>
  </defs>
  <sodipodi:namedview
     id="base"
     pagecolor="#ffffff"
     bordercolor="#666666"
     borderopacity="1.0"
     inkscape:pageopacity="0.0"
     inkscape:pageshadow="2"
     inkscape:zoom="0.48729671"
     inkscape:cx="381.40579"
     inkscape:cy="92.534821"
     inkscape:document-units="mm"
     inkscape:current-layer="layer1"
     showgrid="false"
     units="in"
     inkscape:window-width="1366"
     inkscape:window-height="716"
     inkscape:window-x="-8"
     inkscape:window-y="22"
     inkscape:window-maximized="1" />
  <metadata
     id="metadata5">
    <rdf:RDF>
      <cc:Work
         rdf:about="">
        <dc:format>image/svg+xml</dc:format>
        <dc:type
           rdf:resource="http://purl.org/dc/dcmitype/StillImage" />
        <dc:title></dc:title>
      </cc:Work>
    </rdf:RDF>
  </metadata>
  <g
     inkscape:label="Layer 1"
     inkscape:groupmode="layer"
     id="layer1"
     transform="translate(0,-130.12199)">
    <g
       id="g234">
      <g
         transform="matrix(0.35277777,0,0,-0.35277777,-0.037079,297.26845)"
         id="g20">
        <g
           id="g22">
          <g
             clip-path="url(#clipPath28)"
             id="g24">
            <path
               inkscape:connector-curvature="0"
               id="path30"
               style="fill:#f4f4f4;fill-opacity:1;fill-rule:nonzero;stroke:none"
               d="M -8.504,-8.504 H 850.394 V 481.89 H -8.504 Z" />
          </g>
        </g>
      </g>
      <path
         inkscape:connector-curvature="0"
         id="path32"
         style="fill:#55008c;fill-opacity:1;fill-rule:nonzero;stroke:none;stroke-width:0.35277778"
         d="M -0.037079,297.1224 H 296.963 V 130.26839 H -0.037079 Z" />
      <g
         transform="matrix(0.35277777,0,0,-0.35277777,240.04086,130.47904)"
         id="g34">
        <path
           inkscape:connector-curvature="0"
           id="path36"
           style="fill:#27fdcc;fill-opacity:1;fill-rule:nonzero;stroke:none"
           d="m 0,0 55.473,-279.14 -345.239,-193.263 h 11.628 L 61.849,-282.081 5.792,0 Z" />
      </g>
      <g
         transform="matrix(0.35277777,0,0,-0.35277777,257.86245,130.47904)"
         id="g38">
        <path
           inkscape:connector-curvature="0"
           id="path40"
           style="fill:#27fdcc;fill-opacity:1;fill-rule:nonzero;stroke:none"
           d="m 0,0 55.207,-287.294 -335.635,-185.109 h 24.157 L 68.262,-293.416 11.88,0 Z" />
      </g>
      <g
         transform="matrix(0.35277777,0,0,-0.35277777,275.86756,130.47904)"
         id="g42">
        <path
           inkscape:connector-curvature="0"
           id="path44"
           style="fill:#27fdcc;fill-opacity:1;fill-rule:nonzero;stroke:none"
           d="m 0,0 54.445,-295.394 -326.776,-177.009 h 37.063 l 295.066,159.831 v 85.533 L 17.95,0 Z" />
      </g>
      <g
         transform="matrix(0.35277777,0,0,-0.35277777,294.11587,130.47904)"
         id="g46">
        <path
           inkscape:connector-curvature="0"
           id="path48"
           style="fill:#27fdcc;fill-opacity:1;fill-rule:nonzero;stroke:none"
           d="M 0,0 8.069,-46.174 V 0 Z m -265.925,-472.403 h 50.494 l 223.5,118.409 v 26.75 z" />
      </g>
      <g
         transform="matrix(0.35277777,0,0,-0.35277777,220.29998,297.13224)"
         id="g50">
        <path
           inkscape:connector-curvature="0"
           id="path52"
           style="fill:#27fdcc;fill-opacity:1;fill-rule:nonzero;stroke:none"
           d="m 0,0 h 64.69 l 152.622,78.62 v 33.326 z" />
      </g>
      <g
         transform="matrix(0.35277777,0,0,-0.35277777,239.51698,297.13224)"
         id="g54">
        <path
           inkscape:connector-curvature="0"
           id="path56"
           style="fill:#27fdcc;fill-opacity:1;fill-rule:nonzero;stroke:none"
           d="m 0,0 h 80.062 l 82.777,41.108 V 80.87 Z" />
      </g>
      <g
         transform="matrix(0.35277777,0,0,-0.35277777,257.45986,297.13224)"
         id="g58">
        <path
           inkscape:connector-curvature="0"
           id="path60"
           style="fill:#27fdcc;fill-opacity:1;fill-rule:nonzero;stroke:none"
           d="m 0,0 h 97.367 l 14.61,6.903 v 46.008 z" />
      </g>
      <g
         transform="matrix(0.35277777,0,0,-0.35277777,273.10118,297.13224)"
         id="g62">
        <path
           inkscape:connector-curvature="0"
           id="path64"
           style="fill:#27fdcc;fill-opacity:1;fill-rule:nonzero;stroke:none"
           d="M 0,0 H 67.64 V 29.747 Z" />
      </g>
      <g
         transform="matrix(0.35277777,0,0,-0.35277777,283.91428,297.13224)"
         id="g66">
        <path
           inkscape:connector-curvature="0"
           id="path68"
           style="fill:#27fdcc;fill-opacity:1;fill-rule:nonzero;stroke:none"
           d="M 0,0 H 36.988 V 14.53 Z" />
      </g>
      <g
         transform="matrix(0.35277777,0,0,-0.35277777,281.57589,297.13224)"
         id="g70">
        <path
           inkscape:connector-curvature="0"
           id="path72"
           style="fill:#27fdcc;fill-opacity:1;fill-rule:nonzero;stroke:none"
           d="M 0,0 H 43.617 V 13.948 Z" />
      </g>
    </g>
  </g>
</svg>
